<svg width="20" height="9" viewBox="0 0 20 9" fill="none" xmlns="http://www.w3.org/2000/svg">
<path fill-rule="evenodd" clip-rule="evenodd" d="M0 4C9.65598e-06 4 1.93119e-05 4 2.89679e-05 4C0.949181 4 2.13714 4.46554 3.58582 5.91421C5.47048 7.79887 7.61585 9 10 9C12.3842 9 14.5296 7.79887 16.4142 5.91421C17.8629 4.46554 19.0509 4 20 4V0C17.6158 0 15.4705 1.20113 13.5858 3.08579C12.1371 4.53446 10.9492 5 10 5C9.05088 5 7.86292 4.53446 6.41424 3.08579C4.52958 1.20113 2.38421 0 2.89679e-05 0C1.93119e-05 0 9.65595e-06 0 0 0V4Z" fill="#212145"/>
</svg>
